<svg id="Layer_1" data-name="Layer 1" xmlns="http://www.w3.org/2000/svg" viewBox="0 0 543.6 572.95"><defs><style>.cls-1{fill:#01aac1;}</style></defs><g id="SvgjsG1045"><circle class="cls-1" cx="531.63" cy="214.23" r="11.96"/><circle class="cls-1" cx="502.75" cy="214.23" r="11.96"/><path class="cls-1" d="M584.5,336.83a12,12,0,1,1,12-11.95A12,12,0,0,1,584.5,336.83Z" transform="translate(-81.74 -81.74)"/><circle class="cls-1" cx="502.75" cy="272.02" r="11.96"/><circle class="cls-1" cx="502.75" cy="387.61" r="11.97"/><circle class="cls-1" cx="473.89" cy="214.23" r="11.96"/><circle class="cls-1" cx="473.89" cy="243.12" r="11.96"/><circle class="cls-1" cx="473.89" cy="272.02" r="11.96"/><circle class="cls-1" cx="445" cy="185.33" r="11.96"/><circle class="cls-1" cx="445" cy="214.23" r="11.96"/><circle class="cls-1" cx="445" cy="243.12" r="11.96"/><circle class="cls-1" cx="445" cy="272.02" r="11.96"/><circle class="cls-1" cx="445" cy="300.92" r="11.96"/><path class="cls-1" d="M497.88,221.26a12,12,0,1,1,12-12A12,12,0,0,1,497.88,221.26Z" transform="translate(-81.74 -81.74)"/><circle class="cls-1" cx="416.13" cy="156.43" r="11.96"/><circle class="cls-1" cx="416.13" cy="185.33" r="11.96"/><circle class="cls-1" cx="416.13" cy="214.23" r="11.96"/><circle class="cls-1" cx="416.13" cy="243.12" r="11.96"/><circle class="cls-1" cx="416.13" cy="272.02" r="11.96"/><circle class="cls-1" cx="416.13" cy="300.92" r="11.96"/><circle class="cls-1" cx="416.13" cy="329.81" r="11.96"/><circle class="cls-1" cx="416.13" cy="358.7" r="11.96"/><circle class="cls-1" cx="416.13" cy="387.61" r="11.97"/><circle class="cls-1" cx="387.26" cy="69.75" r="11.97"/><circle class="cls-1" cx="387.26" cy="98.64" r="11.96"/><path class="cls-1" d="M469,221.26a12,12,0,1,1,12-12A12,12,0,0,1,469,221.26Z" transform="translate(-81.74 -81.74)"/><circle class="cls-1" cx="387.26" cy="156.43" r="11.96"/><circle class="cls-1" cx="387.26" cy="185.33" r="11.96"/><circle class="cls-1" cx="387.26" cy="214.23" r="11.96"/><path class="cls-1" d="M469,336.83a12,12,0,1,1,12-11.95A12,12,0,0,1,469,336.83Z" transform="translate(-81.74 -81.74)"/><circle class="cls-1" cx="387.26" cy="272.02" r="11.96"/><circle class="cls-1" cx="387.26" cy="300.92" r="11.96"/><circle class="cls-1" cx="387.26" cy="329.81" r="11.96"/><circle class="cls-1" cx="387.26" cy="358.7" r="11.96"/><circle class="cls-1" cx="387.26" cy="387.61" r="11.97"/><circle class="cls-1" cx="440.15" cy="151.49" r="11.97" transform="translate(109.84 463.31) rotate(-76.72)"/><circle class="cls-1" cx="440.15" cy="180.39" r="11.96" transform="translate(42.49 454.27) rotate(-70.67)"/><path class="cls-1" d="M440.15,221.26a12,12,0,1,1,12-12A12,12,0,0,1,440.15,221.26Z" transform="translate(-81.74 -81.74)"/><circle class="cls-1" cx="440.15" cy="238.17" r="11.96" transform="translate(-30.07 471.92) rotate(-67.5)"/><circle class="cls-1" cx="440.15" cy="267.08" r="11.96" transform="translate(12.91 567.03) rotate(-79.1)"/><circle class="cls-1" cx="440.15" cy="295.98" r="11.96" transform="matrix(0.16, -0.99, 0.99, 0.16, -4.25, 601.28)"/><path class="cls-1" d="M440.15,336.83a12,12,0,1,1,12-11.95A12,12,0,0,1,440.15,336.83Z" transform="translate(-81.74 -81.74)"/><circle class="cls-1" cx="440.15" cy="353.77" r="11.96" transform="matrix(0.16, -0.99, 0.99, 0.16, -61.3, 649.82)"/><circle class="cls-1" cx="358.4" cy="300.92" r="11.96"/><circle class="cls-1" cx="440.15" cy="411.55" r="11.96" transform="matrix(0.16, -0.99, 0.99, 0.16, -118.34, 698.35)"/><circle class="cls-1" cx="358.4" cy="358.7" r="11.96"/><circle class="cls-1" cx="440.15" cy="469.35" r="11.97" transform="translate(-227.85 122.42) rotate(-22.5)"/><circle class="cls-1" cx="329.54" cy="40.85" r="11.96"/><circle class="cls-1" cx="329.54" cy="69.75" r="11.97"/><circle class="cls-1" cx="329.54" cy="98.64" r="11.96"/><path class="cls-1" d="M411.28,221.26a12,12,0,1,1,12-12A12,12,0,0,1,411.28,221.26Z" transform="translate(-81.74 -81.74)"/><circle class="cls-1" cx="329.54" cy="156.43" r="11.96"/><circle class="cls-1" cx="329.54" cy="185.33" r="11.96"/><circle class="cls-1" cx="329.54" cy="214.23" r="11.96"/><circle class="cls-1" cx="329.54" cy="243.12" r="11.96"/><circle class="cls-1" cx="329.54" cy="272.02" r="11.96"/><circle class="cls-1" cx="329.54" cy="300.92" r="11.96"/><circle class="cls-1" cx="329.54" cy="329.81" r="11.96"/><circle class="cls-1" cx="329.54" cy="358.7" r="11.96"/><circle class="cls-1" cx="329.54" cy="387.61" r="11.97"/><circle class="cls-1" cx="300.66" cy="40.85" r="11.96"/><circle class="cls-1" cx="300.66" cy="69.75" r="11.97"/><circle class="cls-1" cx="300.66" cy="98.64" r="11.96"/><path class="cls-1" d="M382.4,221.26a12,12,0,1,1,12-12A12,12,0,0,1,382.4,221.26Z" transform="translate(-81.74 -81.74)"/><circle class="cls-1" cx="300.66" cy="156.43" r="11.96"/><circle class="cls-1" cx="300.66" cy="185.33" r="11.96"/><circle class="cls-1" cx="300.66" cy="214.23" r="11.96"/><circle class="cls-1" cx="300.66" cy="243.12" r="11.96"/><circle class="cls-1" cx="300.66" cy="272.02" r="11.96"/><circle class="cls-1" cx="300.66" cy="300.92" r="11.96"/><circle class="cls-1" cx="300.66" cy="329.81" r="11.96"/><circle class="cls-1" cx="300.66" cy="358.7" r="11.96"/><circle class="cls-1" cx="300.66" cy="387.61" r="11.97"/><circle class="cls-1" cx="271.8" cy="40.85" r="11.96"/><circle class="cls-1" cx="271.8" cy="69.75" r="11.97"/><circle class="cls-1" cx="271.8" cy="98.64" r="11.96"/><path class="cls-1" d="M353.54,221.26a12,12,0,1,1,12-12A12,12,0,0,1,353.54,221.26Z" transform="translate(-81.74 -81.74)"/><circle class="cls-1" cx="271.8" cy="156.43" r="11.96"/><circle class="cls-1" cx="271.8" cy="185.33" r="11.96"/><circle class="cls-1" cx="271.8" cy="214.23" r="11.96"/><circle class="cls-1" cx="271.8" cy="243.12" r="11.96"/><circle class="cls-1" cx="271.8" cy="272.02" r="11.96"/><circle class="cls-1" cx="271.8" cy="300.92" r="11.96"/><circle class="cls-1" cx="271.8" cy="329.81" r="11.96"/><circle class="cls-1" cx="271.8" cy="358.7" r="11.96"/><circle class="cls-1" cx="271.8" cy="387.61" r="11.97"/><circle class="cls-1" cx="502.75" cy="416.5" r="11.96"/><circle class="cls-1" cx="502.75" cy="445.39" r="11.97"/><circle class="cls-1" cx="502.75" cy="474.29" r="11.96"/><circle class="cls-1" cx="473.89" cy="416.5" r="11.96"/><circle class="cls-1" cx="473.89" cy="445.39" r="11.97"/><circle class="cls-1" cx="473.89" cy="474.29" r="11.96"/><circle class="cls-1" cx="473.89" cy="503.2" r="11.96"/><circle class="cls-1" cx="416.13" cy="416.5" r="11.96"/><circle class="cls-1" cx="416.13" cy="445.39" r="11.97"/><circle class="cls-1" cx="387.26" cy="416.5" r="11.96"/><circle class="cls-1" cx="387.26" cy="445.39" r="11.97"/><circle class="cls-1" cx="387.26" cy="474.29" r="11.96"/><circle class="cls-1" cx="387.26" cy="503.2" r="11.96"/><circle class="cls-1" cx="358.4" cy="416.5" r="11.96"/><circle class="cls-1" cx="440.15" cy="527.14" r="11.97" transform="translate(-249.97 126.82) rotate(-22.5)"/><circle class="cls-1" cx="358.4" cy="474.29" r="11.96"/><circle class="cls-1" cx="440.15" cy="584.94" r="11.96" transform="translate(-272.09 131.22) rotate(-22.5)"/><circle class="cls-1" cx="358.4" cy="532.08" r="11.96"/><circle class="cls-1" cx="329.54" cy="416.5" r="11.96"/><circle class="cls-1" cx="329.54" cy="445.39" r="11.97"/><circle class="cls-1" cx="329.54" cy="474.29" r="11.96"/><circle class="cls-1" cx="329.54" cy="503.2" r="11.96"/><circle class="cls-1" cx="329.54" cy="532.08" r="11.96"/><circle class="cls-1" cx="329.54" cy="560.99" r="11.96"/><circle class="cls-1" cx="300.66" cy="416.5" r="11.96"/><circle class="cls-1" cx="300.66" cy="445.39" r="11.97"/><circle class="cls-1" cx="300.66" cy="474.29" r="11.96"/><circle class="cls-1" cx="300.66" cy="503.2" r="11.96"/><circle class="cls-1" cx="300.66" cy="532.08" r="11.96"/><circle class="cls-1" cx="300.66" cy="560.99" r="11.96"/><circle class="cls-1" cx="271.8" cy="416.5" r="11.96"/><circle class="cls-1" cx="271.8" cy="445.39" r="11.97"/><circle class="cls-1" cx="271.8" cy="474.29" r="11.96"/><circle class="cls-1" cx="271.8" cy="503.2" r="11.96"/><circle class="cls-1" cx="271.8" cy="532.08" r="11.96"/><circle class="cls-1" cx="271.8" cy="560.99" r="11.96"/><circle class="cls-1" cx="242.92" cy="40.85" r="11.96"/><circle class="cls-1" cx="242.92" cy="69.75" r="11.97"/><circle class="cls-1" cx="242.92" cy="98.64" r="11.96"/><path class="cls-1" d="M324.66,221.26a12,12,0,1,1,12-12A12,12,0,0,1,324.66,221.26Z" transform="translate(-81.74 -81.74)"/><circle class="cls-1" cx="242.92" cy="156.43" r="11.96"/><circle class="cls-1" cx="242.92" cy="185.33" r="11.96"/><circle class="cls-1" cx="242.92" cy="214.23" r="11.96"/><circle class="cls-1" cx="242.92" cy="243.12" r="11.96"/><circle class="cls-1" cx="242.92" cy="272.02" r="11.96"/><circle class="cls-1" cx="242.92" cy="300.92" r="11.96"/><circle class="cls-1" cx="242.92" cy="329.81" r="11.96"/><circle class="cls-1" cx="242.92" cy="358.7" r="11.96"/><circle class="cls-1" cx="242.92" cy="387.61" r="11.97"/><circle class="cls-1" cx="214.05" cy="11.96" r="11.96"/><circle class="cls-1" cx="214.05" cy="40.85" r="11.96"/><circle class="cls-1" cx="214.05" cy="69.75" r="11.97"/><circle class="cls-1" cx="214.05" cy="98.64" r="11.96"/><path class="cls-1" d="M295.8,221.26a12,12,0,1,1,12-12A12,12,0,0,1,295.8,221.26Z" transform="translate(-81.74 -81.74)"/><circle class="cls-1" cx="214.05" cy="156.43" r="11.96"/><circle class="cls-1" cx="214.05" cy="185.33" r="11.96"/><circle class="cls-1" cx="214.05" cy="214.23" r="11.96"/><circle class="cls-1" cx="214.05" cy="243.12" r="11.96"/><circle class="cls-1" cx="214.05" cy="272.02" r="11.96"/><circle class="cls-1" cx="214.05" cy="300.92" r="11.96"/><circle class="cls-1" cx="214.05" cy="329.81" r="11.96"/><circle class="cls-1" cx="185.17" cy="11.96" r="11.96"/><circle class="cls-1" cx="185.17" cy="40.85" r="11.96"/><circle class="cls-1" cx="185.17" cy="69.75" r="11.97"/><circle class="cls-1" cx="185.17" cy="98.64" r="11.96"/><path class="cls-1" d="M266.92,221.26a12,12,0,1,1,12-12A12,12,0,0,1,266.92,221.26Z" transform="translate(-81.74 -81.74)"/><circle class="cls-1" cx="185.17" cy="156.43" r="11.96"/><circle class="cls-1" cx="185.17" cy="185.33" r="11.96"/><circle class="cls-1" cx="185.17" cy="214.23" r="11.96"/><path class="cls-1" d="M266.92,336.83a12,12,0,1,1,12-11.95A12,12,0,0,1,266.92,336.83Z" transform="translate(-81.74 -81.74)"/><circle class="cls-1" cx="185.17" cy="272.02" r="11.96"/><path class="cls-1" d="M238.06,105.67a12,12,0,1,1,11.94-12A12,12,0,0,1,238.06,105.67Z" transform="translate(-81.74 -81.74)"/><circle class="cls-1" cx="156.31" cy="40.85" r="11.96"/><circle class="cls-1" cx="156.31" cy="69.75" r="11.97"/><circle class="cls-1" cx="156.31" cy="98.64" r="11.96"/><path class="cls-1" d="M238.06,221.26a12,12,0,1,1,11.94-12A12,12,0,0,1,238.06,221.26Z" transform="translate(-81.74 -81.74)"/><circle class="cls-1" cx="156.31" cy="156.43" r="11.96"/><circle class="cls-1" cx="156.31" cy="185.33" r="11.96"/><circle class="cls-1" cx="156.31" cy="214.23" r="11.96"/><circle class="cls-1" cx="156.31" cy="243.12" r="11.96"/><circle class="cls-1" cx="127.44" cy="11.96" r="11.96"/><circle class="cls-1" cx="127.44" cy="40.85" r="11.96"/><circle class="cls-1" cx="127.44" cy="69.75" r="11.97"/><circle class="cls-1" cx="127.44" cy="98.64" r="11.96"/><path class="cls-1" d="M209.18,221.26a12,12,0,1,1,12-12A12,12,0,0,1,209.18,221.26Z" transform="translate(-81.74 -81.74)"/><circle class="cls-1" cx="127.44" cy="156.43" r="11.96"/><circle class="cls-1" cx="127.44" cy="185.33" r="11.96"/><circle class="cls-1" cx="127.44" cy="214.23" r="11.96"/><circle class="cls-1" cx="127.44" cy="243.12" r="11.96"/><circle class="cls-1" cx="98.57" cy="11.96" r="11.96"/><circle class="cls-1" cx="98.57" cy="40.85" r="11.96"/><circle class="cls-1" cx="98.57" cy="69.75" r="11.97"/><circle class="cls-1" cx="98.57" cy="98.64" r="11.96"/><path class="cls-1" d="M180.31,221.26a12,12,0,1,1,12-12A12,12,0,0,1,180.31,221.26Z" transform="translate(-81.74 -81.74)"/><circle class="cls-1" cx="98.57" cy="156.43" r="11.96"/><circle class="cls-1" cx="98.57" cy="185.33" r="11.96"/><circle class="cls-1" cx="98.57" cy="214.23" r="11.96"/><circle class="cls-1" cx="98.57" cy="243.12" r="11.96"/><circle class="cls-1" cx="98.57" cy="272.02" r="11.96"/><path class="cls-1" d="M151.44,134.55a12,12,0,1,1,12-12A12,12,0,0,1,151.44,134.55Z" transform="translate(-81.74 -81.74)"/><path class="cls-1" d="M151.44,163.46a12,12,0,1,1,12-12A12,12,0,0,1,151.44,163.46Z" transform="translate(-81.74 -81.74)"/><path class="cls-1" d="M151.44,192.35a12,12,0,1,1,12-12A12,12,0,0,1,151.44,192.35Z" transform="translate(-81.74 -81.74)"/><path class="cls-1" d="M151.44,221.26a12,12,0,1,1,12-12A12,12,0,0,1,151.44,221.26Z" transform="translate(-81.74 -81.74)"/><path class="cls-1" d="M151.44,250.13a12,12,0,1,1,12-11.94A11.94,11.94,0,0,1,151.44,250.13Z" transform="translate(-81.74 -81.74)"/><path class="cls-1" d="M151.44,279a12,12,0,1,1,12-12A12,12,0,0,1,151.44,279Z" transform="translate(-81.74 -81.74)"/><path class="cls-1" d="M151.44,307.94a12,12,0,1,1,12-12A12,12,0,0,1,151.44,307.94Z" transform="translate(-81.74 -81.74)"/><path class="cls-1" d="M151.44,336.83a12,12,0,1,1,12-11.95A12,12,0,0,1,151.44,336.83Z" transform="translate(-81.74 -81.74)"/><path class="cls-1" d="M151.44,365.73a12,12,0,1,1,12-12A12,12,0,0,1,151.44,365.73Z" transform="translate(-81.74 -81.74)"/><circle class="cls-1" cx="40.82" cy="98.64" r="11.96"/><path class="cls-1" d="M122.57,221.26a12,12,0,1,1,12-12A12,12,0,0,1,122.57,221.26Z" transform="translate(-81.74 -81.74)"/><path class="cls-1" d="M122.57,250.13a12,12,0,1,1,12-11.94A11.94,11.94,0,0,1,122.57,250.13Z" transform="translate(-81.74 -81.74)"/><circle class="cls-1" cx="40.82" cy="185.33" r="11.96"/><circle class="cls-1" cx="40.82" cy="214.23" r="11.96"/><path class="cls-1" d="M122.57,336.83a12,12,0,1,1,12-11.95A11.95,11.95,0,0,1,122.57,336.83Z" transform="translate(-81.74 -81.74)"/><path class="cls-1" d="M93.71,221.26a12,12,0,1,1,12-12A12,12,0,0,1,93.71,221.26Z" transform="translate(-81.74 -81.74)"/><circle class="cls-1" cx="11.96" cy="156.43" r="11.96"/><circle class="cls-1" cx="11.96" cy="185.33" r="11.96"/><circle class="cls-1" cx="11.96" cy="214.23" r="11.96"/><circle class="cls-1" cx="242.92" cy="416.5" r="11.96"/><circle class="cls-1" cx="242.92" cy="445.39" r="11.97"/><circle class="cls-1" cx="242.92" cy="474.29" r="11.96"/><circle class="cls-1" cx="242.92" cy="503.2" r="11.96"/></g></svg>