
        <svg xmlns="http://www.w3.org/2000/svg" xmlns:xlink="http://www.w3.org/1999/xlink" version="1.1" width="3163.487738419619" 
        height="736.4366912880441" viewBox="0 0 3163.487738419619 736.4366912880441">
			
			<g transform="scale(8.174386920980927) translate(10, 10)">
				<defs id="SvgjsDefs1044"></defs><g id="SvgjsG1045" featureKey="symbolFeature-0" transform="matrix(0.7009074988673754,0,0,0.7009074988673754,-1.7964258941964588,0)" fill="#01aac1"><g xmlns="http://www.w3.org/2000/svg"><g><g><circle cx="95.352" cy="37.391" r="2.088"></circle></g><g><circle cx="90.311" cy="37.391" r="2.088"></circle><path d="M90.311,44.521c-1.151,0-2.086-0.933-2.086-2.085c0-1.155,0.935-2.09,2.086-2.09c1.153,0,2.09,0.935,2.09,2.09     C92.398,43.588,91.464,44.521,90.311,44.521z"></path><circle cx="90.311" cy="47.478" r="2.088"></circle><circle cx="90.311" cy="67.651" r="2.09"></circle></g><g><circle cx="85.273" cy="37.391" r="2.088"></circle><circle cx="85.273" cy="42.433" r="2.088"></circle><circle cx="85.273" cy="47.478" r="2.088"></circle></g><g><circle cx="80.232" cy="32.347" r="2.088"></circle><circle cx="80.232" cy="37.391" r="2.088"></circle><circle cx="80.232" cy="42.433" r="2.088"></circle><circle cx="80.232" cy="47.478" r="2.088"></circle><circle cx="80.232" cy="52.521" r="2.087"></circle></g><g><path d="M75.193,24.35c-1.15,0-2.088-0.938-2.088-2.088c0-1.154,0.938-2.089,2.088-2.089c1.152,0,2.09,0.935,2.09,2.089     C77.283,23.412,76.348,24.35,75.193,24.35z"></path><circle cx="75.193" cy="27.302" r="2.088"></circle><circle cx="75.193" cy="32.347" r="2.088"></circle><circle cx="75.193" cy="37.391" r="2.088"></circle><circle cx="75.193" cy="42.433" r="2.088"></circle><circle cx="75.193" cy="47.478" r="2.088"></circle><circle cx="75.193" cy="52.521" r="2.087"></circle><circle cx="75.193" cy="57.563" r="2.088"></circle><circle cx="75.193" cy="62.606" r="2.087"></circle><circle cx="75.193" cy="67.651" r="2.09"></circle></g><g><circle cx="70.154" cy="12.173" r="2.089"></circle><circle cx="70.154" cy="17.217" r="2.088"></circle><path d="M70.154,24.35c-1.151,0-2.088-0.938-2.088-2.088c0-1.154,0.937-2.089,2.088-2.089c1.154,0,2.089,0.935,2.089,2.089     C72.243,23.412,71.311,24.35,70.154,24.35z"></path><circle cx="70.154" cy="27.302" r="2.088"></circle><circle cx="70.154" cy="32.347" r="2.088"></circle><circle cx="70.154" cy="37.391" r="2.088"></circle><path d="M70.154,44.521c-1.151,0-2.088-0.933-2.088-2.085c0-1.155,0.937-2.09,2.088-2.09c1.154,0,2.089,0.935,2.089,2.09     C72.243,43.588,71.311,44.521,70.154,44.521z"></path><circle cx="70.154" cy="47.478" r="2.088"></circle><circle cx="70.154" cy="52.521" r="2.087"></circle><circle cx="70.154" cy="57.563" r="2.088"></circle><circle cx="70.154" cy="62.606" r="2.087"></circle><circle cx="70.154" cy="67.651" r="2.09"></circle></g><g><circle cx="65.117" cy="12.173" r="2.089"></circle><circle cx="65.117" cy="17.217" r="2.088"></circle><path d="M65.117,24.35c-1.153,0-2.088-0.938-2.088-2.088c0-1.154,0.935-2.089,2.088-2.089c1.154,0,2.089,0.935,2.089,2.089     C67.206,23.412,66.271,24.35,65.117,24.35z"></path><circle cx="65.117" cy="27.302" r="2.088"></circle><circle cx="65.117" cy="32.347" r="2.088"></circle><circle cx="65.117" cy="37.391" r="2.088"></circle><path d="M65.117,44.521c-1.153,0-2.088-0.933-2.088-2.085c0-1.155,0.935-2.09,2.088-2.09c1.154,0,2.089,0.935,2.089,2.09     C67.206,43.588,66.271,44.521,65.117,44.521z"></path><circle cx="65.117" cy="47.478" r="2.088"></circle><circle cx="65.117" cy="52.521" r="2.087"></circle><circle cx="65.117" cy="57.563" r="2.088"></circle><circle cx="65.117" cy="62.606" r="2.087"></circle><circle cx="65.117" cy="67.651" r="2.09"></circle></g><g><circle cx="60.079" cy="7.13" r="2.088"></circle><circle cx="60.079" cy="12.173" r="2.089"></circle><circle cx="60.079" cy="17.217" r="2.088"></circle><path d="M60.079,24.35c-1.155,0-2.089-0.938-2.089-2.088c0-1.154,0.934-2.089,2.089-2.089c1.151,0,2.087,0.935,2.087,2.089     C62.166,23.412,61.23,24.35,60.079,24.35z"></path><circle cx="60.079" cy="27.302" r="2.088"></circle><circle cx="60.079" cy="32.347" r="2.088"></circle><circle cx="60.079" cy="37.391" r="2.088"></circle><circle cx="60.079" cy="42.433" r="2.088"></circle><circle cx="60.079" cy="47.478" r="2.088"></circle><circle cx="60.079" cy="52.521" r="2.087"></circle><circle cx="60.079" cy="57.563" r="2.088"></circle><circle cx="60.079" cy="62.606" r="2.087"></circle><circle cx="60.079" cy="67.651" r="2.09"></circle></g><g><circle cx="55.039" cy="7.13" r="2.088"></circle><circle cx="55.039" cy="12.173" r="2.089"></circle><circle cx="55.039" cy="17.217" r="2.088"></circle><path d="M55.039,24.35c-1.152,0-2.089-0.938-2.089-2.088c0-1.154,0.937-2.089,2.089-2.089c1.15,0,2.088,0.935,2.088,2.089     C57.127,23.412,56.189,24.35,55.039,24.35z"></path><circle cx="55.039" cy="27.302" r="2.088"></circle><circle cx="55.039" cy="32.347" r="2.088"></circle><circle cx="55.039" cy="37.391" r="2.088"></circle><circle cx="55.039" cy="42.433" r="2.088"></circle><circle cx="55.039" cy="47.478" r="2.088"></circle><circle cx="55.039" cy="52.521" r="2.087"></circle><circle cx="55.039" cy="57.563" r="2.088"></circle><circle cx="55.039" cy="62.606" r="2.087"></circle><circle cx="55.039" cy="67.651" r="2.09"></circle></g><g><circle cx="50.001" cy="7.13" r="2.088"></circle><circle cx="50.001" cy="12.173" r="2.089"></circle><circle cx="50.001" cy="17.217" r="2.088"></circle><path d="M50.001,24.35c-1.154,0-2.09-0.938-2.09-2.088c0-1.154,0.936-2.089,2.09-2.089c1.151,0,2.088,0.935,2.088,2.089     C52.09,23.412,51.152,24.35,50.001,24.35z"></path><circle cx="50.001" cy="27.302" r="2.088"></circle><circle cx="50.001" cy="32.347" r="2.088"></circle><circle cx="50.001" cy="37.391" r="2.088"></circle><circle cx="50.001" cy="42.433" r="2.088"></circle><circle cx="50.001" cy="47.478" r="2.088"></circle><circle cx="50.001" cy="52.521" r="2.087"></circle><circle cx="50.001" cy="57.563" r="2.088"></circle><circle cx="50.001" cy="62.606" r="2.087"></circle><circle cx="50.001" cy="67.651" r="2.09"></circle></g><g><circle cx="90.311" cy="72.694" r="2.087"></circle><circle cx="90.311" cy="77.737" r="2.09"></circle><circle cx="90.311" cy="82.78" r="2.087"></circle></g><g><circle cx="85.273" cy="72.694" r="2.087"></circle><circle cx="85.273" cy="77.737" r="2.09"></circle><circle cx="85.273" cy="82.78" r="2.087"></circle><circle cx="85.273" cy="87.826" r="2.088"></circle></g><g><circle cx="75.193" cy="72.694" r="2.087"></circle><circle cx="75.193" cy="77.737" r="2.09"></circle></g><g><circle cx="70.154" cy="72.694" r="2.087"></circle><circle cx="70.154" cy="77.737" r="2.09"></circle><circle cx="70.154" cy="82.78" r="2.087"></circle><circle cx="70.154" cy="87.826" r="2.088"></circle></g><g><circle cx="65.117" cy="72.694" r="2.087"></circle><circle cx="65.117" cy="77.737" r="2.09"></circle><circle cx="65.117" cy="82.78" r="2.087"></circle><circle cx="65.117" cy="87.826" r="2.088"></circle><circle cx="65.117" cy="92.867" r="2.087"></circle></g><g><circle cx="60.079" cy="72.694" r="2.087"></circle><circle cx="60.079" cy="77.737" r="2.09"></circle><circle cx="60.079" cy="82.78" r="2.087"></circle><circle cx="60.079" cy="87.826" r="2.088"></circle><circle cx="60.079" cy="92.867" r="2.087"></circle><circle cx="60.079" cy="97.912" r="2.088"></circle></g><g><circle cx="55.039" cy="72.694" r="2.087"></circle><circle cx="55.039" cy="77.737" r="2.09"></circle><circle cx="55.039" cy="82.78" r="2.087"></circle><circle cx="55.039" cy="87.826" r="2.088"></circle><circle cx="55.039" cy="92.867" r="2.087"></circle><circle cx="55.039" cy="97.912" r="2.088"></circle></g><g><circle cx="50.001" cy="72.694" r="2.087"></circle><circle cx="50.001" cy="77.737" r="2.09"></circle><circle cx="50.001" cy="82.78" r="2.087"></circle><circle cx="50.001" cy="87.826" r="2.088"></circle><circle cx="50.001" cy="92.867" r="2.087"></circle><circle cx="50.001" cy="97.912" r="2.088"></circle></g><g><circle cx="44.961" cy="7.13" r="2.088"></circle><circle cx="44.961" cy="12.173" r="2.089"></circle><circle cx="44.961" cy="17.217" r="2.088"></circle><path d="M44.961,24.35c-1.154,0-2.087-0.938-2.087-2.088c0-1.154,0.933-2.089,2.087-2.089c1.152,0,2.088,0.935,2.088,2.089     C47.05,23.412,46.113,24.35,44.961,24.35z"></path><circle cx="44.961" cy="27.302" r="2.088"></circle><circle cx="44.961" cy="32.347" r="2.088"></circle><circle cx="44.961" cy="37.391" r="2.088"></circle><circle cx="44.961" cy="42.433" r="2.088"></circle><circle cx="44.961" cy="47.478" r="2.088"></circle><circle cx="44.961" cy="52.521" r="2.087"></circle><circle cx="44.961" cy="57.563" r="2.088"></circle><circle cx="44.961" cy="62.606" r="2.087"></circle><circle cx="44.961" cy="67.651" r="2.09"></circle></g><g><circle cx="39.923" cy="2.088" r="2.088"></circle><circle cx="39.923" cy="7.13" r="2.088"></circle><circle cx="39.923" cy="12.173" r="2.089"></circle><circle cx="39.923" cy="17.217" r="2.088"></circle><path d="M39.923,24.35c-1.152,0-2.088-0.938-2.088-2.088c0-1.154,0.936-2.089,2.088-2.089c1.152,0,2.087,0.935,2.087,2.089     C42.01,23.412,41.075,24.35,39.923,24.35z"></path><circle cx="39.923" cy="27.302" r="2.088"></circle><circle cx="39.923" cy="32.347" r="2.088"></circle><circle cx="39.923" cy="37.391" r="2.088"></circle><circle cx="39.923" cy="42.433" r="2.088"></circle><circle cx="39.923" cy="47.478" r="2.088"></circle><circle cx="39.923" cy="52.521" r="2.087"></circle><circle cx="39.923" cy="57.563" r="2.088"></circle></g><g><circle cx="34.882" cy="2.088" r="2.088"></circle><circle cx="34.882" cy="7.13" r="2.088"></circle><circle cx="34.882" cy="12.173" r="2.089"></circle><circle cx="34.882" cy="17.217" r="2.088"></circle><path d="M34.882,24.35c-1.15,0-2.087-0.938-2.087-2.088c0-1.154,0.937-2.089,2.087-2.089c1.152,0,2.089,0.935,2.089,2.089     C36.971,23.412,36.035,24.35,34.882,24.35z"></path><circle cx="34.882" cy="27.302" r="2.088"></circle><circle cx="34.882" cy="32.347" r="2.088"></circle><circle cx="34.882" cy="37.391" r="2.088"></circle><path d="M34.882,44.521c-1.15,0-2.087-0.933-2.087-2.085c0-1.155,0.937-2.09,2.087-2.09c1.152,0,2.089,0.935,2.089,2.09     C36.971,43.588,36.035,44.521,34.882,44.521z"></path><circle cx="34.882" cy="47.478" r="2.088"></circle></g><g><path d="M29.845,4.176c-1.155,0-2.09-0.937-2.09-2.09C27.755,0.934,28.69,0,29.845,0c1.152,0,2.085,0.934,2.085,2.085     C31.931,3.239,30.998,4.176,29.845,4.176z"></path><circle cx="29.845" cy="7.13" r="2.088"></circle><circle cx="29.845" cy="12.173" r="2.089"></circle><circle cx="29.845" cy="17.217" r="2.088"></circle><path d="M29.845,24.35c-1.155,0-2.09-0.938-2.09-2.088c0-1.154,0.935-2.089,2.09-2.089c1.152,0,2.085,0.935,2.085,2.089     C31.931,23.412,30.998,24.35,29.845,24.35z"></path><circle cx="29.845" cy="27.302" r="2.088"></circle><circle cx="29.845" cy="32.347" r="2.088"></circle><circle cx="29.845" cy="37.391" r="2.088"></circle><circle cx="29.845" cy="42.433" r="2.088"></circle></g><g><circle cx="24.805" cy="2.088" r="2.088"></circle><circle cx="24.805" cy="7.13" r="2.088"></circle><circle cx="24.805" cy="12.173" r="2.089"></circle><circle cx="24.805" cy="17.217" r="2.088"></circle><path d="M24.805,24.35c-1.154,0-2.087-0.938-2.087-2.088c0-1.154,0.933-2.089,2.087-2.089c1.154,0,2.088,0.935,2.088,2.089     C26.894,23.412,25.959,24.35,24.805,24.35z"></path><circle cx="24.805" cy="27.302" r="2.088"></circle><circle cx="24.805" cy="32.347" r="2.088"></circle><circle cx="24.805" cy="37.391" r="2.088"></circle><circle cx="24.805" cy="42.433" r="2.088"></circle></g><g><circle cx="19.767" cy="2.088" r="2.088"></circle><circle cx="19.767" cy="7.13" r="2.088"></circle><circle cx="19.767" cy="12.173" r="2.089"></circle><circle cx="19.767" cy="17.217" r="2.088"></circle><path d="M19.767,24.35c-1.152,0-2.088-0.938-2.088-2.088c0-1.154,0.936-2.089,2.088-2.089s2.088,0.935,2.088,2.089     C21.855,23.412,20.919,24.35,19.767,24.35z"></path><circle cx="19.767" cy="27.302" r="2.088"></circle><circle cx="19.767" cy="32.347" r="2.088"></circle><circle cx="19.767" cy="37.391" r="2.088"></circle><circle cx="19.767" cy="42.433" r="2.088"></circle><circle cx="19.767" cy="47.478" r="2.088"></circle></g><g><path d="M14.728,9.217c-1.154,0-2.088-0.935-2.088-2.087c0-1.152,0.935-2.088,2.088-2.088c1.15,0,2.087,0.936,2.087,2.088     C16.815,8.282,15.878,9.217,14.728,9.217z"></path><path d="M14.728,14.262c-1.154,0-2.088-0.936-2.088-2.088c0-1.153,0.935-2.09,2.088-2.09c1.15,0,2.087,0.937,2.087,2.09     C16.815,13.326,15.878,14.262,14.728,14.262z"></path><path d="M14.728,19.305c-1.154,0-2.088-0.935-2.088-2.088c0-1.153,0.935-2.088,2.088-2.088c1.15,0,2.087,0.935,2.087,2.088     C16.815,18.37,15.878,19.305,14.728,19.305z"></path><path d="M14.728,24.35c-1.154,0-2.088-0.938-2.088-2.088c0-1.154,0.935-2.089,2.088-2.089c1.15,0,2.087,0.935,2.087,2.089     C16.815,23.412,15.878,24.35,14.728,24.35z"></path><path d="M14.728,29.39c-1.154,0-2.088-0.933-2.088-2.085c0-1.155,0.935-2.09,2.088-2.09c1.15,0,2.087,0.935,2.087,2.09     C16.815,28.457,15.878,29.39,14.728,29.39z"></path><path d="M14.728,34.435c-1.154,0-2.088-0.936-2.088-2.088c0-1.152,0.935-2.087,2.088-2.087c1.15,0,2.087,0.935,2.087,2.087     C16.815,33.499,15.878,34.435,14.728,34.435z"></path><path d="M14.728,39.479c-1.154,0-2.088-0.937-2.088-2.088c0-1.155,0.935-2.088,2.088-2.088c1.15,0,2.087,0.933,2.087,2.088     C16.815,38.543,15.878,39.479,14.728,39.479z"></path><path d="M14.728,44.521c-1.154,0-2.088-0.933-2.088-2.085c0-1.155,0.935-2.09,2.088-2.09c1.15,0,2.087,0.935,2.087,2.09     C16.815,43.588,15.878,44.521,14.728,44.521z"></path><path d="M14.728,49.566c-1.154,0-2.088-0.937-2.088-2.088c0-1.155,0.935-2.088,2.088-2.088c1.15,0,2.087,0.933,2.087,2.088     C16.815,48.629,15.878,49.566,14.728,49.566z"></path></g><g><circle cx="9.688" cy="17.217" r="2.088"></circle><path d="M9.688,24.35c-1.152,0-2.085-0.938-2.085-2.088c0-1.154,0.933-2.089,2.085-2.089c1.153,0,2.09,0.935,2.09,2.089     C11.778,23.412,10.841,24.35,9.688,24.35z"></path><path d="M9.688,29.39c-1.152,0-2.085-0.933-2.085-2.085c0-1.155,0.933-2.09,2.085-2.09c1.153,0,2.09,0.935,2.09,2.09     C11.778,28.457,10.841,29.39,9.688,29.39z"></path><circle cx="9.688" cy="32.347" r="2.088"></circle><circle cx="9.688" cy="37.391" r="2.088"></circle><path d="M9.688,44.521c-1.152,0-2.085-0.933-2.085-2.085c0-1.155,0.933-2.09,2.085-2.09c1.153,0,2.09,0.935,2.09,2.09     C11.778,43.588,10.841,44.521,9.688,44.521z"></path></g><g><path d="M4.651,24.35c-1.155,0-2.088-0.938-2.088-2.088c0-1.154,0.933-2.089,2.088-2.089c1.152,0,2.088,0.935,2.088,2.089     C6.739,23.412,5.803,24.35,4.651,24.35z"></path><circle cx="4.651" cy="27.302" r="2.088"></circle><circle cx="4.651" cy="32.347" r="2.088"></circle><circle cx="4.651" cy="37.391" r="2.088"></circle></g><g><circle cx="44.961" cy="72.694" r="2.087"></circle><circle cx="44.961" cy="77.737" r="2.09"></circle><circle cx="44.961" cy="82.78" r="2.087"></circle><circle cx="44.961" cy="87.826" r="2.088"></circle></g></g></g></g><g id="SvgjsG1046" featureKey="nameFeature-0" transform="matrix(1.1223344748882884,0,0,1.1223344748882884,83.36363655824393,-2.223337256491943)" fill="#111111"><path d="M4.64 20.24 q-0.56 0 -0.98 -0.42 t-0.42 -0.98 l0 -7.44 q0 -0.56 0.42 -0.98 t0.98 -0.42 l3.04 0 q0.6 0 1 0.42 t0.4 0.98 l0 7.44 q0 0.56 -0.4 0.98 t-1 0.42 l-3.04 0 z M26.36 10 q0.56 0 0.98 0.42 t0.42 0.98 l0 26.88 q0 0.56 -0.42 0.98 t-0.98 0.42 l-3.04 0 q-0.6 0 -1 -0.42 t-0.4 -0.98 l0 -10.56 l-12.84 0 l0 10.56 q0 0.56 -0.4 0.98 t-1 0.42 l-3.04 0 q-0.56 0 -0.98 -0.42 t-0.42 -0.98 l0 -14.96 q0 -0.56 0.42 -0.98 t0.98 -0.42 l17.28 0 l0 -10.52 q0 -0.56 0.4 -0.98 t1 -0.42 l3.04 0 z M47.44 10 q6.56 0 10.76 4.4 q4.12 4.32 4.12 10.6 t-4.12 10.6 q-4.2 4.4 -10.76 4.4 t-10.76 -4.4 q-4.12 -4.32 -4.12 -10.6 t4.12 -10.6 q4.2 -4.4 10.76 -4.4 z M47.44 34.28 q4.12 0 6.64 -2.64 q2.44 -2.56 2.44 -6.62 t-2.48 -6.68 t-6.6 -2.62 t-6.6 2.62 t-2.48 6.68 t2.44 6.62 q2.52 2.64 6.64 2.64 z M103.4 10 q0.68 0 1.12 0.56 q0.2 0.28 0.26 0.62 t-0.06 0.62 l-8.24 26.6 q-0.16 0.44 -0.52 0.7 t-0.84 0.26 l-3.4 0 q-0.44 0 -0.82 -0.28 t-0.5 -0.68 l-5.88 -18.2 l-5.84 18.2 q-0.16 0.44 -0.52 0.7 t-0.8 0.26 l-3.44 0 q-0.44 0 -0.8 -0.26 t-0.52 -0.7 l-8.24 -26.6 q-0.12 -0.28 -0.06 -0.62 t0.24 -0.62 t0.5 -0.42 t0.64 -0.14 l3.16 0 q0.44 0 0.82 0.28 t0.5 0.72 l5.52 18.04 l5.8 -18.08 q0.16 -0.44 0.52 -0.7 t0.8 -0.26 l3.48 0 q0.44 0 0.8 0.26 t0.52 0.7 l5.76 18.08 l5.52 -18.04 q0.16 -0.44 0.52 -0.72 t0.84 -0.28 l3.16 0 z M132.96 10 q0.56 0 0.98 0.42 t0.42 0.98 l0 26.8 q0 0.56 -0.42 0.98 t-0.98 0.42 l-3.52 0 q-0.72 0 -1.16 -0.56 l-19.56 -26.8 q-0.24 -0.32 -0.28 -0.72 t0.14 -0.76 t0.52 -0.56 t0.74 -0.2 l3.52 0 q0.32 0 0.64 0.14 t0.48 0.42 l14.04 19.08 l0 -18.24 q0 -0.56 0.4 -0.98 t1 -0.42 l3.04 0 z M112.88 29.4 q0.56 0 0.98 0.4 t0.42 1 l0 7.4 q0 0.56 -0.42 0.98 t-0.98 0.42 l-3.04 0 q-0.56 0 -0.98 -0.42 t-0.42 -0.98 l0 -7.4 q0 -0.6 0.42 -1 t0.98 -0.4 l3.04 0 z M154.04 10 q6.56 0 10.76 4.4 q4.12 4.32 4.12 10.6 t-4.12 10.6 q-4.2 4.4 -10.76 4.4 t-10.76 -4.4 q-4.12 -4.32 -4.12 -10.6 t4.12 -10.6 q4.2 -4.4 10.76 -4.4 z M154.04 34.28 q4.12 0 6.64 -2.64 q2.44 -2.56 2.44 -6.62 t-2.48 -6.68 t-6.6 -2.62 t-6.6 2.62 t-2.48 6.68 t2.44 6.62 q2.52 2.64 6.64 2.64 z M210 10 q0.68 0 1.12 0.56 q0.2 0.28 0.26 0.62 t-0.06 0.62 l-8.24 26.6 q-0.16 0.44 -0.52 0.7 t-0.84 0.26 l-3.4 0 q-0.44 0 -0.82 -0.28 t-0.5 -0.68 l-5.88 -18.2 l-5.84 18.2 q-0.16 0.44 -0.52 0.7 t-0.8 0.26 l-3.44 0 q-0.44 0 -0.8 -0.26 t-0.52 -0.7 l-8.24 -26.6 q-0.12 -0.28 -0.06 -0.62 t0.24 -0.62 t0.5 -0.42 t0.64 -0.14 l3.16 0 q0.44 0 0.82 0.28 t0.5 0.72 l5.52 18.04 l5.8 -18.08 q0.16 -0.44 0.52 -0.7 t0.8 -0.26 l3.48 0 q0.44 0 0.8 0.26 t0.52 0.7 l5.76 18.08 l5.52 -18.04 q0.16 -0.44 0.52 -0.72 t0.84 -0.28 l3.16 0 z M251.32 10 q0.68 0 1.12 0.56 q0.2 0.28 0.26 0.62 t-0.06 0.62 l-8.24 26.6 q-0.16 0.44 -0.52 0.7 t-0.84 0.26 l-3.4 0 q-0.44 0 -0.82 -0.28 t-0.5 -0.68 l-5.88 -18.2 l-5.84 18.2 q-0.16 0.44 -0.52 0.7 t-0.8 0.26 l-3.44 0 q-0.44 0 -0.8 -0.26 t-0.52 -0.7 l-8.24 -26.6 q-0.12 -0.28 -0.06 -0.62 t0.24 -0.62 t0.5 -0.42 t0.64 -0.14 l3.16 0 q0.44 0 0.82 0.28 t0.5 0.72 l5.52 18.04 l5.8 -18.08 q0.16 -0.44 0.52 -0.7 t0.8 -0.26 l3.48 0 q0.44 0 0.8 0.26 t0.52 0.7 l5.76 18.08 l5.52 -18.04 q0.16 -0.44 0.52 -0.72 t0.84 -0.28 l3.16 0 z"></path></g><g id="SvgjsG1047" featureKey="sloganFeature-0" transform="matrix(0.6021323991166838,0,0,0.6021323991166838,86.8232741730166,49.57190961077216)" fill="#111111"><path d="M11.27 20 l-1.0254 -2.9102 l-5.9277 0 l-1.0254 2.9102 l-2.998 0 l5.1953 -14.111 l3.584 0 l5.1953 14.111 l-2.998 0 z M5.1758 14.6387 l4.209 0 l-2.0996 -5.9863 z M27.43115625 8.467 l-5.3711 0 l0 3.2031 l4.6387 0 l0 2.5488 l-4.6387 0 l0 5.7813 l-2.9492 0 l0 -14.111 l8.3203 0 l0 2.5781 z M40.107378125 20 l-3.6719 -6.2109 l-0.84961 0 l0 6.2109 l-2.9297 0 l0 -14.111 l5.1172 0 c3.1934 0 4.541 1.8848 4.541 4.2188 c0 1.8945 -1.0742 3.125 -2.9883 3.5352 l4.248 6.3574 l-3.4668 0 z M35.585978125 8.32 l0 3.3691 l1.7285 0 c1.5625 0 2.1973 -0.66406 2.1973 -1.6797 c0 -1.0059 -0.63477 -1.6895 -2.1973 -1.6895 l-1.7285 0 z M48.44729375 20 l0 -14.111 l2.9297 0 l0 14.111 l-2.9297 0 z M63.99416875 20.19531 c-4.1504 0 -7.2168 -2.8223 -7.2168 -7.2559 s3.0664 -7.2461 7.2168 -7.2461 c3.1445 0 5.6641 1.6113 6.6699 4.2871 l-2.7344 0.99609 c-0.625 -1.6406 -2.1191 -2.5879 -3.9355 -2.5879 c-2.4316 0 -4.2969 1.6992 -4.2969 4.5508 s1.8652 4.5605 4.2969 4.5605 c1.8164 0 3.3105 -0.95703 3.9355 -2.5977 l2.7344 0.99609 c-1.0059 2.6758 -3.5254 4.2969 -6.6699 4.2969 z M85.23484375 20 l-1.0254 -2.9102 l-5.9277 0 l-1.0254 2.9102 l-2.998 0 l5.1953 -14.111 l3.584 0 l5.1953 14.111 l-2.998 0 z M79.14064375 14.6387 l4.209 0 l-2.0996 -5.9863 z M102.715 5.888999999999999 l2.9199 0 l0 14.111 l-3.3887 0 l-6.25 -10.088 l0 10.088 l-2.9199 0 l0 -14.111 l3.3496 0 l6.2891 10.029 l0 -10.029 z M128.11546875 8.467 l-5.2344 0 l0 3.2031 l4.6387 0 l0 2.5488 l-4.6387 0 l0 3.1934 l5.2344 0 l0 2.5879 l-8.1836 0 l0 -14.111 l8.1836 0 l0 2.5781 z M139.08205 20.19531 c-3.0957 0 -5.5176 -1.582 -5.5176 -5.1367 l0 -9.1699 l2.9297 0 l0 8.7695 c0 2.1484 1.1426 2.9492 2.5879 2.9492 c1.4551 0 2.6074 -0.81055 2.6074 -2.9492 l0 -8.7695 l2.9297 0 l0 9.1699 c0 3.5547 -2.4316 5.1367 -5.5371 5.1367 z M158.154253125 20 l-3.6719 -6.2109 l-0.84961 0 l0 6.2109 l-2.9297 0 l0 -14.111 l5.1172 0 c3.1934 0 4.541 1.8848 4.541 4.2188 c0 1.8945 -1.0742 3.125 -2.9883 3.5352 l4.248 6.3574 l-3.4668 0 z M153.632853125 8.32 l0 3.3691 l1.7285 0 c1.5625 0 2.1973 -0.66406 2.1973 -1.6797 c0 -1.0059 -0.63477 -1.6895 -2.1973 -1.6895 l-1.7285 0 z M172.74416875 20.19531 c-4.1504 0 -7.2168 -2.832 -7.2168 -7.2559 c0 -4.4336 3.0664 -7.2461 7.2168 -7.2461 c4.1406 0 7.207 2.8125 7.207 7.2461 c0 4.4238 -3.0664 7.2559 -7.207 7.2559 z M172.74416875 17.5098 c2.4316 0 4.2969 -1.709 4.2969 -4.5703 c0 -2.8516 -1.8652 -4.5508 -4.2969 -4.5508 s-4.2969 1.6992 -4.2969 4.5508 c0 2.8613 1.8652 4.5703 4.2969 4.5703 z M192.949221875 12.5488 c1.5918 0.43945 2.6563 1.4844 2.6563 3.4961 c0 2.3828 -1.4453 3.9551 -4.4238 3.9551 l-5.8105 0 l0 -14.111 l4.5703 0 c3.0469 0 4.6484 1.4648 4.6484 3.8672 c0 1.2402 -0.53711 2.2559 -1.6406 2.793 z M189.970721875 8.32 l-1.7773 0 l0 3.3203 l1.9043 0 c1.25 0 1.7969 -0.74219 1.7969 -1.6992 c0 -0.9375 -0.61523 -1.6211 -1.9238 -1.6211 z M190.634721875 17.4902 c1.582 0 2.1289 -0.84961 2.1289 -1.7676 c0 -0.9375 -0.53711 -1.8262 -2.1875 -1.8262 l-2.3828 0 l0 3.5938 l2.4414 0 z M207.187528125 20.19531 c-4.1504 0 -7.2168 -2.832 -7.2168 -7.2559 c0 -4.4336 3.0664 -7.2461 7.2168 -7.2461 c4.1406 0 7.207 2.8125 7.207 7.2461 c0 4.4238 -3.0664 7.2559 -7.207 7.2559 z M207.187528125 17.5098 c2.4316 0 4.2969 -1.709 4.2969 -4.5703 c0 -2.8516 -1.8652 -4.5508 -4.2969 -4.5508 s-4.2969 1.6992 -4.2969 4.5508 c0 2.8613 1.8652 4.5703 4.2969 4.5703 z M229.45328125 5.888999999999999 l2.9199 0 l0 14.111 l-3.3887 0 l-6.25 -10.088 l0 10.088 l-2.9199 0 l0 -14.111 l3.3496 0 l6.2891 10.029 l0 -10.029 z M238.750028125 20 l0 -14.111 l5.1074 0 c4.502 0 6.7285 2.832 6.7285 7.0508 c0 4.2285 -2.2266 7.0605 -6.7285 7.0605 l-5.1074 0 z M241.679728125 17.4121 l2.0313 0 c2.5977 0 3.7891 -1.6211 3.7891 -4.4727 s-1.1914 -4.4727 -3.7891 -4.4727 l-2.0313 0 l0 8.9453 z M260.742215625 20.19531 c-3.0273 0 -5.3906 -1.4551 -5.8203 -4.1016 l3.0273 -0.69336 c0.19531 1.582 1.3574 2.4023 2.9102 2.4023 c1.1914 0 2.1387 -0.52734 2.1289 -1.7188 c-0.0097656 -1.3281 -1.5723 -1.748 -3.291 -2.2754 c-2.0703 -0.64453 -4.2871 -1.4063 -4.2871 -4.0039 c0 -2.627 2.1484 -4.1113 4.9805 -4.1113 c2.4805 0 4.9805 1.0059 5.5469 3.7109 l-2.832 0.70313 c-0.26367 -1.4063 -1.2109 -2.0215 -2.5391 -2.0215 c-1.1816 0 -2.1875 0.48828 -2.1875 1.6504 c0 1.084 1.3867 1.4453 2.9883 1.9238 c2.1289 0.64453 4.6484 1.4648 4.6484 4.2773 c0 2.998 -2.5098 4.2578 -5.2734 4.2578 z"></path></g>
			</g>
		</svg>
	